HIERARCHY
ROOT Hips
{
	OFFSET 0.000000 0.000000 0.000000 
	CHANNELS 6 Xposition Yposition Zposition Yrotation Zrotation Xrotation 
	JOINT Lumbar
	{
		OFFSET 0.000000 0.000000 0.000000 
		CHANNELS 3 Zrotation Xrotation Yrotation
		JOINT Neck
		{
			OFFSET 0.000000 0.445665 0.000000 
			CHANNELS 3 Zrotation Xrotation Yrotation
			End Site
			{
				OFFSET 0.000000 0.227535 0.000000 
			}
		}
		JOINT RightShoulder
		{
			OFFSET 0.019635 0.377685 0.194865 
			CHANNELS 3 Zrotation Xrotation Yrotation
			JOINT RightElbow
			{
				OFFSET 0.000000 -0.243375 0.000000 
				CHANNELS 2 Zrotation Yrotation
				JOINT RightWrist
				{
					OFFSET 0.000000 -0.264825 0.000000 
					CHANNELS 2 Zrotation Xrotation
					End Site
					{
						OFFSET 0.006600 -0.176220 0.000990 
					}
				}
			}
		}
		JOINT LeftShoulder
		{
			OFFSET 0.019635 0.377685 -0.194865 
			CHANNELS 3 Zrotation Xrotation Yrotation
			JOINT LeftElbow
			{
				OFFSET 0.000000 -0.243375 0.000000 
				CHANNELS 2 Zrotation Yrotation
				JOINT LeftWrist
				{
					OFFSET 0.000000 -0.264825 0.000000 
					CHANNELS 2 Zrotation Xrotation
					End Site
					{
						OFFSET 0.006600 -0.176220 -0.000990 
					}
				}
			}
		}
	}
	JOINT RightHip
	{
		OFFSET 0.052140 -0.069960 0.075570 
		CHANNELS 3 Zrotation Xrotation Yrotation
		JOINT RightKnee
		{
			OFFSET 0.000000 -0.402270 0.000000 
			CHANNELS 1 Zrotation
			JOINT RightAnkle
			{
				OFFSET 0.000000 -0.404085 0.000000 
				CHANNELS 3 Zrotation Xrotation Yrotation
				End Site
				{
					OFFSET 0.204105 -0.089430 0.008415 
				}
			}
		}
	}
	JOINT LeftHip
	{
		OFFSET 0.052140 -0.069960 -0.075570 
		CHANNELS 3 Zrotation Xrotation Yrotation
		JOINT LeftKnee
		{
			OFFSET 0.000000 -0.402270 0.000000 
			CHANNELS 1 Zrotation
			JOINT LeftAnkle
			{
				OFFSET 0.000000 -0.404085 0.000000 
				CHANNELS 3 Zrotation Xrotation Yrotation
				End Site
				{
					OFFSET 0.204105 -0.089430 -0.008415 
				}
			}
		}
	}
}
MOTION
Frames: 16
Frame Time: 0.02
-1.10967 0.19794 -0.86941 214.67452 0 46.78087 5.09452 3.40113 -2.19105 -33.9516 -21.15903 -34.96391 16.5864 -4.97534 -54.57818 11.85839 114.42262 -25.07224 -8.75659 70.18476 41.60416 -59.87259 83.87443 -79.23648 7.14927 5.13403 71.13767 0.83086 -17.20077 -127.81842 10.52212 4.32124 13.97378 93.03669 5.96267 28.12097 -106.44181 4.91237 -1.99548 -14.78087
-1.11784 0.17804 -0.8736 218.28996 0 44.60559 8.2473 2.30988 -3.82835 -35.67988 -20.55474 -35.97568 16.84544 -3.13345 -57.2792 11.10157 115.59036 -24.41391 -9.11934 69.67589 39.71983 -59.97988 83.5608 -78.42136 8.81337 5.0133 73.92969 1.41979 -21.27694 -128.48818 11.2977 4.23386 12.5632 97.05009 5.38461 26.38488 -107.8432 4.20869 -1.84379 -14.78521
-1.12646 0.1585 -0.87736 222.0753 0 41.68798 11.26702 1.67928 -6.04037 -37.45461 -19.60643 -36.75014 17.68418 -1.63663 -60.48768 10.31925 117.19726 -23.87911 -9.56411 69.17963 37.92636 -60.05658 83.18268 -78.57646 9.42104 4.99046 76.57778 1.7684 -26.1815 -129.08314 11.64575 3.91238 10.74474 101.29279 4.75553 24.47984 -109.32788 3.28705 -1.64686 -14.77868
-1.13474 0.139 -0.88124 225.71584 0 39.19436 14.29862 0.79956 -7.94514 -39.25342 -18.82983 -37.65069 18.28754 0.02375 -63.14472 9.5557 118.40514 -23.31556 -9.92889 68.72905 36.14577 -60.13934 82.8352 -78.19428 10.52638 4.93646 79.3089 2.28129 -30.56072 -129.7045 12.16894 3.67957 9.07831 105.35337 4.18452 22.71872 -110.74498 2.45722 -1.47146 -14.77419
-1.14364 0.11852 -0.8854 229.65728 0 36.33111 17.54948 0.07388 -10.04808 -40.87152 -17.97516 -38.4805 18.77963 1.65925 -67.17131 8.76062 120.4787 -22.63842 -10.4766 68.0501 34.12695 -60.23904 82.47425 -78.17646 11.57991 4.82494 81.98533 2.57328 -35.54166 -130.38214 12.75666 3.51215 7.5359 109.75794 3.46687 20.67392 -112.29521 1.66615 -1.29431 -14.77111
-1.15132 0.10021 -0.88888 233.00424 0 34.06059 20.30441 -0.85133 -11.87335 -42.86695 -17.2106 -39.39045 19.63415 3.25718 -68.44644 8.02752 120.82443 -22.2296 -10.65958 67.84765 32.62141 -60.30241 82.1255 -77.65869 12.48401 4.85397 84.72692 3.25538 -39.4784 -130.91641 13.11413 3.16591 5.65678 113.49476 3.04029 19.17681 -113.58478 0.7421 -1.10961 -14.76646
-1.15574 0.0877 -0.89059 234.69252 0 33.63748 21.7477 -2.52123 -12.79202 -45.96866 -16.7283 -40.6848 21.40012 4.91065 -62.18113 7.44967 116.55141 -22.49078 -9.84388 69.03828 32.61568 -60.2729 81.87127 -75.37202 13.20663 5.28442 87.76878 5.17884 -40.30214 -131.06076 12.94733 2.26534 2.79966 115.32935 3.45552 19.27184 -114.13658 -0.52941 -0.90957 -14.76262
-1.15888 0.07738 -0.89163 235.7694 0 33.83168 22.68908 -4.39163 -13.41155 -49.43294 -16.3594 -42.04946 23.50062 6.52489 -53.10703 6.93991 110.48673 -23.0232 -8.65426 70.69529 33.10897 -60.21014 81.62558 -72.58103 13.81656 5.84685 90.86275 7.48365 -40.05465 -131.06169 12.56464 1.21324 -0.35342 116.48179 4.16139 19.91673 -114.42152 -1.92308 -0.70405 -14.75868
-1.16248 0.06612 -0.89297 237.10931 0 33.72558 23.84332 -6.11643 -14.16599 -52.6825 -15.97284 -43.31284 25.41331 8.10828 -45.18529 6.41229 105.05786 -23.459 -7.61546 72.08931 33.30471 -60.16503 81.34722 -70.12396 14.49286 6.32482 93.8765 9.54405 -40.31906 -131.13321 12.27879 0.30945 -3.27451 117.94647 4.71708 20.28583 -114.82627 -3.23969 -0.50434 -14.7547
-1.1666 0.05462 -0.89431 238.52132 0 33.67825 25.06167 -8.05602 -14.94167 -56.14883 -15.43039 -44.85821 27.49764 9.88438 -37.7578 5.82511 100.35248 -23.79211 -6.65486 73.70062 33.79196 -60.1081 81.18487 -67.25788 15.07012 6.90864 97.12779 11.89469 -40.50717 -131.18132 11.98338 -0.93191 -6.62468 119.41202 5.34541 20.76042 -115.24103 -4.65242 -0.28935 -14.75048
-1.16933 0.04416 -0.8955 239.63153 0 33.66308 26.0237 -9.60091 -15.59865 -59.24384 -15.24498 -45.839 29.29598 11.25515 -28.68671 5.38279 93.76554 -24.39511 -5.44819 74.96787 33.80209 -60.06801 80.78762 -65.11163 15.83886 7.30313 99.89397 13.73648 -40.58773 -131.24305 11.66186 -1.51058 -9.14209 120.70821 5.89454 21.14545 -115.56951 -5.89396 -0.10514 -14.74696
-1.16848 0.03598 -0.89631 240.09285 0 33.60514 26.44683 -10.01681 -15.96624 -61.26989 -16.01497 -45.21894 30.2235 11.50993 -15.24784 5.28745 81.9312 -25.73408 -3.5959 75.19144 32.26404 -60.08642 79.70632 -65.07296 17.18256 7.13292 101.34777 14.06313 -40.64146 -131.3937 11.32626 -0.15739 -9.32084 121.72252 6.13359 21.17413 -115.73225 -6.60837 -0.01007 -14.74555
-1.16626 0.02878 -0.89701 240.26494 0 33.55878 26.62213 -10.02941 -16.23049 -62.90138 -17.14437 -44.03415 30.84893 11.36094 -0.344 5.34257 68.35347 -27.32363 -1.51938 75.05004 30.24834 -60.12237 78.39406 -65.77271 18.72439 6.76893 102.30575 13.8687 -40.6182 -131.56036 10.97258 1.85644 -8.64439 122.58489 6.28695 21.09112 -115.8156 -7.14994 0.05415 -14.74492
-1.16468 0.02116 -0.89785 240.54463 0 33.49761 26.88032 -10.22187 -16.55919 -64.68324 -18.11062 -43.12519 31.60886 11.40285 13.55088 5.35263 55.89434 -28.76082 0.41731 75.06076 28.52232 -60.14804 77.2108 -66.131 20.16879 6.49945 103.46404 13.92518 -40.62097 -131.70927 10.6266 3.52721 -8.33386 123.50368 6.49305 21.04177 -115.93013 -7.7855 0.13413 -14.74387
-1.163 0.0135 -0.89834 240.90045 0 33.49616 27.24325 -10.43378 -16.795 -66.59859 -19.07274 -42.13721 32.39129 11.41239 28.98543 5.26615 41.99934 -30.37148 2.52779 75.14083 26.50782 -60.18247 75.92973 -66.49424 21.64065 6.2074 104.72583 13.93588 -40.62523 -131.89708 10.27699 5.37573 -8.12429 124.45348 6.65096 21.07837 -116.05607 -8.35968 0.207 -14.74298
-1.16122 0.00614 -0.89951 241.04113 0 33.36722 27.33976 -10.50902 -17.21487 -68.13921 -20.13623 -41.17922 33.05233 11.39341 41.53314 5.41617 30.69932 -31.67495 4.32387 74.98989 24.97348 -60.20301 74.79312 -67.03262 23.1029 5.91468 105.65848 13.91251 -40.62129 -132.00989 9.931 7.00992 -7.50443 125.3098 6.88519 20.90896 -116.14289 -9.01978 0.28726 -14.74207
